<mxfile host="Electron" agent="Mozilla/5.0 (Windows NT 10.0; Win64; x64) AppleWebKit/537.36 (KHTML, like Gecko) draw.io/26.0.16 Chrome/132.0.6834.196 Electron/34.2.0 Safari/537.36" version="26.0.16">
  <diagram name="Страница — 1" id="9frWRxmrwCSgYS4yV8vj">
    <mxGraphModel dx="819" dy="482" grid="1" gridSize="10" guides="1" tooltips="1" connect="1" arrows="1" fold="1" page="1" pageScale="1" pageWidth="827" pageHeight="1169" math="0" shadow="0">
      <root>
        <mxCell id="0" />
        <mxCell id="1" parent="0" />
        <mxCell id="EZaQU6f6YYHirgOq3e9_-1" value="" style="ellipse;html=1;shape=startState;fillColor=#000000;strokeColor=#ff0000;" vertex="1" parent="1">
          <mxGeometry x="110" y="150" width="30" height="30" as="geometry" />
        </mxCell>
        <mxCell id="EZaQU6f6YYHirgOq3e9_-2" value="отклик работника&lt;div&gt;на вакансию&lt;/div&gt;" style="edgeStyle=orthogonalEdgeStyle;html=1;verticalAlign=bottom;endArrow=open;endSize=8;strokeColor=#ff0000;rounded=0;entryX=0.5;entryY=0;entryDx=0;entryDy=0;" edge="1" source="EZaQU6f6YYHirgOq3e9_-1" parent="1" target="EZaQU6f6YYHirgOq3e9_-8">
          <mxGeometry relative="1" as="geometry">
            <mxPoint x="125" y="240" as="targetPoint" />
          </mxGeometry>
        </mxCell>
        <mxCell id="EZaQU6f6YYHirgOq3e9_-3" value="" style="ellipse;html=1;shape=endState;fillColor=#000000;strokeColor=#ff0000;" vertex="1" parent="1">
          <mxGeometry x="255" y="555" width="30" height="30" as="geometry" />
        </mxCell>
        <mxCell id="EZaQU6f6YYHirgOq3e9_-7" value="Состояния отклика" style="text;html=1;align=center;verticalAlign=middle;resizable=0;points=[];autosize=1;strokeColor=none;fillColor=none;" vertex="1" parent="1">
          <mxGeometry x="55" y="110" width="130" height="30" as="geometry" />
        </mxCell>
        <mxCell id="EZaQU6f6YYHirgOq3e9_-8" value="На рассмотрении" style="rounded=1;whiteSpace=wrap;html=1;arcSize=40;fontColor=#000000;fillColor=#ffffc0;strokeColor=#ff0000;" vertex="1" parent="1">
          <mxGeometry x="65" y="250" width="120" height="40" as="geometry" />
        </mxCell>
        <mxCell id="EZaQU6f6YYHirgOq3e9_-9" value="принято решение" style="edgeStyle=orthogonalEdgeStyle;html=1;verticalAlign=bottom;endArrow=open;endSize=8;strokeColor=#ff0000;rounded=0;entryX=0.5;entryY=0;entryDx=0;entryDy=0;" edge="1" source="EZaQU6f6YYHirgOq3e9_-8" parent="1" target="EZaQU6f6YYHirgOq3e9_-10">
          <mxGeometry relative="1" as="geometry">
            <mxPoint x="125" y="350" as="targetPoint" />
          </mxGeometry>
        </mxCell>
        <mxCell id="EZaQU6f6YYHirgOq3e9_-10" value="&lt;font style=&quot;font-size: 10px;&quot;&gt;Работник приглашен&lt;/font&gt;" style="rhombus;whiteSpace=wrap;html=1;fontColor=#000000;fillColor=#ffffc0;strokeColor=#ff0000;" vertex="1" parent="1">
          <mxGeometry x="85" y="360" width="80" height="40" as="geometry" />
        </mxCell>
        <mxCell id="EZaQU6f6YYHirgOq3e9_-11" value="no" style="edgeStyle=orthogonalEdgeStyle;html=1;align=left;verticalAlign=bottom;endArrow=open;endSize=8;strokeColor=#ff0000;rounded=0;entryX=0.5;entryY=0;entryDx=0;entryDy=0;" edge="1" source="EZaQU6f6YYHirgOq3e9_-10" parent="1" target="EZaQU6f6YYHirgOq3e9_-15">
          <mxGeometry x="-1" relative="1" as="geometry">
            <mxPoint x="260" y="380" as="targetPoint" />
          </mxGeometry>
        </mxCell>
        <mxCell id="EZaQU6f6YYHirgOq3e9_-12" value="yes" style="edgeStyle=orthogonalEdgeStyle;html=1;align=left;verticalAlign=top;endArrow=open;endSize=8;strokeColor=#ff0000;rounded=0;entryX=0.5;entryY=0;entryDx=0;entryDy=0;" edge="1" source="EZaQU6f6YYHirgOq3e9_-10" parent="1" target="EZaQU6f6YYHirgOq3e9_-13">
          <mxGeometry x="-1" relative="1" as="geometry">
            <mxPoint x="125" y="460" as="targetPoint" />
          </mxGeometry>
        </mxCell>
        <mxCell id="EZaQU6f6YYHirgOq3e9_-13" value="Добавлен оффер с вердиктом приглашения" style="rounded=1;whiteSpace=wrap;html=1;arcSize=40;fontColor=#000000;fillColor=#ffffc0;strokeColor=#ff0000;" vertex="1" parent="1">
          <mxGeometry x="65" y="460" width="120" height="40" as="geometry" />
        </mxCell>
        <mxCell id="EZaQU6f6YYHirgOq3e9_-14" value="отправка уведомления" style="edgeStyle=orthogonalEdgeStyle;html=1;verticalAlign=bottom;endArrow=open;endSize=8;strokeColor=#ff0000;rounded=0;entryX=0.5;entryY=0;entryDx=0;entryDy=0;" edge="1" source="EZaQU6f6YYHirgOq3e9_-13" parent="1" target="EZaQU6f6YYHirgOq3e9_-16">
          <mxGeometry relative="1" as="geometry">
            <mxPoint x="125" y="560" as="targetPoint" />
          </mxGeometry>
        </mxCell>
        <mxCell id="EZaQU6f6YYHirgOq3e9_-15" value="Отказной отклик" style="rounded=1;whiteSpace=wrap;html=1;arcSize=40;fontColor=#000000;fillColor=#ffffc0;strokeColor=#ff0000;" vertex="1" parent="1">
          <mxGeometry x="210" y="460" width="120" height="40" as="geometry" />
        </mxCell>
        <mxCell id="EZaQU6f6YYHirgOq3e9_-16" value="Оффер отправлен" style="rounded=1;whiteSpace=wrap;html=1;arcSize=40;fontColor=#000000;fillColor=#ffffc0;strokeColor=#ff0000;" vertex="1" parent="1">
          <mxGeometry x="65" y="550" width="120" height="40" as="geometry" />
        </mxCell>
        <mxCell id="EZaQU6f6YYHirgOq3e9_-17" value="" style="edgeStyle=orthogonalEdgeStyle;html=1;verticalAlign=bottom;endArrow=open;endSize=8;strokeColor=#ff0000;rounded=0;entryX=0;entryY=0.5;entryDx=0;entryDy=0;" edge="1" source="EZaQU6f6YYHirgOq3e9_-16" parent="1" target="EZaQU6f6YYHirgOq3e9_-3">
          <mxGeometry relative="1" as="geometry">
            <mxPoint x="200" y="670" as="targetPoint" />
          </mxGeometry>
        </mxCell>
        <mxCell id="EZaQU6f6YYHirgOq3e9_-20" value="" style="edgeStyle=orthogonalEdgeStyle;html=1;verticalAlign=bottom;endArrow=open;endSize=8;strokeColor=#ff0000;rounded=0;entryX=0.5;entryY=0;entryDx=0;entryDy=0;exitX=0.5;exitY=1;exitDx=0;exitDy=0;" edge="1" parent="1" source="EZaQU6f6YYHirgOq3e9_-15" target="EZaQU6f6YYHirgOq3e9_-3">
          <mxGeometry relative="1" as="geometry">
            <mxPoint x="210" y="580" as="targetPoint" />
            <mxPoint x="135" y="510" as="sourcePoint" />
          </mxGeometry>
        </mxCell>
      </root>
    </mxGraphModel>
  </diagram>
</mxfile>
